<svg xmlns="http://www.w3.org/2000/svg" xmlns:xlink="http://www.w3.org/1999/xlink" width="856" height="808pt" viewBox="0 0 642 808"><g id="graph1" class="graph" transform="scale(1 1) rotate(0) translate(4 804)"><title>ladder_oob</title><polygon fill="#fff" stroke="#fff" points="-4 5 -4 -804 639 -804 639 5 -4 5"/><g id="node2" class="node"><title>p0</title><polygon fill="#ff1493" stroke="#000" points="31.517 -776.438 76 -764 120.483 -776.438 120.442 -796.562 31.558 -796.562 31.517 -776.438"/><text x="76" y="-778.3" font-family="Helvetica,sans-Serif" font-size="14" text-anchor="middle">Parent</text></g><g id="node3" class="node"><title>s0</title><polygon fill="#6495ed" stroke="#000" points="261.592 -776.438 294 -764 326.408 -776.438 326.378 -796.562 261.622 -796.562 261.592 -776.438"/><text x="294" y="-778.3" font-family="Helvetica,sans-Serif" font-size="14" text-anchor="middle">Self</text></g><g id="node7" class="node"><title>p2</title><ellipse cx="76" cy="-632" fill="#000" stroke="#000" rx="1.8" ry="1.8"/></g><g id="edge35" class="edge"><title>p0-&gt;p2</title><path fill="none" stroke="#d3d3d3" stroke-dasharray="5 2" d="M76,-763.733C76,-727.132 76,-644.256 76,-634.039"/></g><g id="node4" class="node"><title>r0</title><polygon fill="#32cd32" stroke="#000" points="450.775 -776.438 518 -764 585.225 -776.438 585.162 -796.562 450.838 -796.562 450.775 -776.438"/><text x="518" y="-778.3" font-family="Helvetica,sans-Serif" font-size="14" text-anchor="middle">Repository</text></g><g id="node5" class="node"><title>s1</title><polygon fill="#6495ed" stroke="#6495ed" points="334.5 -728 253.5 -728 241.5 -716 241.5 -704 253.5 -692 334.5 -692 346.5 -704 346.5 -716 334.5 -728"/><path fill="#6495ed" stroke="#6495ed" d="M253.5,-728C247.5,-728 241.5,-722 241.5,-716"/><path fill="#6495ed" stroke="#6495ed" d="M241.5,-704C241.5,-698 247.5,-692 253.5,-692"/><path fill="#6495ed" stroke="#6495ed" d="M334.5,-692C340.5,-692 346.5,-698 346.5,-704"/><path fill="#6495ed" stroke="#6495ed" d="M346.5,-716C346.5,-722 340.5,-728 334.5,-728"/><polyline fill="none" stroke="#000" points="334.5 -728 253.5 -728"/><path fill="none" stroke="#000" d="M253.5,-728C247.5,-728 241.5,-722 241.5,-716"/><polyline fill="none" stroke="#000" points="241.5 -716 241.5 -704"/><path fill="none" stroke="#000" d="M241.5,-704C241.5,-698 247.5,-692 253.5,-692"/><polyline fill="none" stroke="#000" points="253.5 -692 334.5 -692"/><path fill="none" stroke="#000" d="M334.5,-692C340.5,-692 346.5,-698 346.5,-704"/><polyline fill="none" stroke="#000" points="346.5 -704 346.5 -716"/><path fill="none" stroke="#000" d="M346.5,-716C346.5,-722 340.5,-728 334.5,-728"/><text x="294" y="-706.3" font-family="Helvetica,sans-Serif" font-size="14" text-anchor="middle">rpkic&gt; initialize</text></g><g id="edge37" class="edge"><title>s0-&gt;s1</title><path fill="none" stroke="#d3d3d3" stroke-dasharray="5 2" d="M294,-763.697C294,-752.846 294,-738.917 294,-728.104"/></g><g id="node22" class="node"><title>r6</title><ellipse cx="518" cy="-263" fill="#000" stroke="#000" rx="1.8" ry="1.8"/></g><g id="edge43" class="edge"><title>r0-&gt;r6</title><path fill="none" stroke="#d3d3d3" stroke-dasharray="5 2" d="M518,-763.683C518,-736.051 518,-680.278 518,-633 518,-633 518,-633 518,-452 518,-373.667 518,-276.974 518,-265.193"/></g><g id="node10" class="node"><title>s2</title><ellipse cx="294" cy="-632" fill="#000" stroke="#000" rx="1.8" ry="1.8"/></g><g id="edge25" class="edge"><title>s1-&gt;s2</title><path fill="none" stroke="#000" d="M294,-691.754C294,-671.433 294,-639.69 294,-633.917"/></g><g id="node9" class="node"><title>m2</title><polygon fill="#d3d3d3" stroke="#d3d3d3" points="143.5 -609 226.5 -609 238.5 -621 238.5 -643 226.5 -655 143.5 -655 131.5 -643 131.5 -621 143.5 -609"/><path fill="#d3d3d3" stroke="#d3d3d3" d="M226.5,-609C232.5,-609 238.5,-615 238.5,-621"/><path fill="#d3d3d3" stroke="#d3d3d3" d="M238.5,-643C238.5,-649 232.5,-655 226.5,-655"/><path fill="#d3d3d3" stroke="#d3d3d3" d="M143.5,-655C137.5,-655 131.5,-649 131.5,-643"/><path fill="#d3d3d3" stroke="#d3d3d3" d="M131.5,-621C131.5,-615 137.5,-609 143.5,-609"/><polyline fill="none" stroke="#000" points="143.5 -609 226.5 -609"/><path fill="none" stroke="#000" d="M226.5,-609C232.5,-609 238.5,-615 238.5,-621"/><polyline fill="none" stroke="#000" points="238.5 -621 238.5 -643"/><path fill="none" stroke="#000" d="M238.5,-643C238.5,-649 232.5,-655 226.5,-655"/><polyline fill="none" stroke="#000" points="226.5 -655 143.5 -655"/><path fill="none" stroke="#000" d="M143.5,-655C137.5,-655 131.5,-649 131.5,-643"/><polyline fill="none" stroke="#000" points="131.5 -643 131.5 -621"/><path fill="none" stroke="#000" d="M131.5,-621C131.5,-615 137.5,-609 143.5,-609"/><text x="185" y="-639.8" font-family="Helvetica,sans-Serif" font-size="14" text-anchor="middle">Child Handle</text><polyline fill="none" stroke="#000" points="131.5 -632 238.5 -632"/><text x="185" y="-616.8" font-family="Helvetica,sans-Serif" font-size="14" text-anchor="middle">Child BPKI TA</text></g><g id="edge4" class="edge"><title>p2-&gt;m2</title><path fill="none" stroke="#000" d="M88.484,-632C102.705,-632 116.926,-632 131.147,-632"/><polygon fill="#000" stroke="#000" points="78.129 -632 88.129 -627.5 83.129 -632 88.129 -632 88.129 -632 88.129 -632 83.129 -632 88.129 -636.5 78.129 -632 78.129 -632"/></g><g id="node11" class="node"><title>p3</title><polygon fill="#ff1493" stroke="#ff1493" points="140.25 -572 11.75 -572 -.25 -560 -.25 -548 11.75 -536 140.25 -536 152.25 -548 152.25 -560 140.25 -572"/><path fill="#ff1493" stroke="#ff1493" d="M11.75,-572C5.75,-572 -0.25,-566 -0.25,-560"/><path fill="#ff1493" stroke="#ff1493" d="M-0.25,-548C-0.25,-542 5.75,-536 11.75,-536"/><path fill="#ff1493" stroke="#ff1493" d="M140.25,-536C146.25,-536 152.25,-542 152.25,-548"/><path fill="#ff1493" stroke="#ff1493" d="M152.25,-560C152.25,-566 146.25,-572 140.25,-572"/><polyline fill="none" stroke="#000" points="140.25 -572 11.75 -572"/><path fill="none" stroke="#000" d="M11.75,-572C5.75,-572 -0.25,-566 -0.25,-560"/><polyline fill="none" stroke="#000" points="-.25 -560 -.25 -548"/><path fill="none" stroke="#000" d="M-0.25,-548C-0.25,-542 5.75,-536 11.75,-536"/><polyline fill="none" stroke="#000" points="11.75 -536 140.25 -536"/><path fill="none" stroke="#000" d="M140.25,-536C146.25,-536 152.25,-542 152.25,-548"/><polyline fill="none" stroke="#000" points="152.25 -548 152.25 -560"/><path fill="none" stroke="#000" d="M152.25,-560C152.25,-566 146.25,-572 140.25,-572"/><text x="76" y="-550.3" font-family="Helvetica,sans-Serif" font-size="14" text-anchor="middle">rpkic&gt; configure_child</text></g><g id="edge22" class="edge"><title>p2-&gt;p3</title><path fill="none" stroke="#000" d="M76,-630.146C76,-624.537 76,-592.543 76,-572.151"/></g><g id="edge5" class="edge"><title>m2-&gt;s2</title><path fill="none" stroke="#000" d="M249.037,-632C263.304,-632 277.571,-632 291.838,-632"/><polygon fill="#000" stroke="#000" points="238.648 -632 248.648 -627.5 243.648 -632 248.648 -632 248.648 -632 248.648 -632 243.648 -632 248.648 -636.5 238.648 -632 238.648 -632"/></g><g id="node16" class="node"><title>s4</title><ellipse cx="294" cy="-453" fill="#000" stroke="#000" rx="1.8" ry="1.8"/></g><g id="edge39" class="edge"><title>s2-&gt;s4</title><path fill="none" stroke="#d3d3d3" stroke-dasharray="5 2" d="M294,-629.87C294,-615.502 294,-468.754 294,-455.028"/></g><g id="node13" class="node"><title>p4</title><ellipse cx="76" cy="-453" fill="#000" stroke="#000" rx="1.8" ry="1.8"/></g><g id="edge23" class="edge"><title>p3-&gt;p4</title><path fill="none" stroke="#000" d="M76,-535.756C76,-509.607 76,-462.19 76,-454.94"/></g><g id="node15" class="node"><title>m4</title><polygon fill="#d3d3d3" stroke="#d3d3d3" points="108 -407 262 -407 274 -419 274 -487 262 -499 108 -499 96 -487 96 -419 108 -407"/><path fill="#d3d3d3" stroke="#d3d3d3" d="M262,-407C268,-407 274,-413 274,-419"/><path fill="#d3d3d3" stroke="#d3d3d3" d="M274,-487C274,-493 268,-499 262,-499"/><path fill="#d3d3d3" stroke="#d3d3d3" d="M108,-499C102,-499 96,-493 96,-487"/><path fill="#d3d3d3" stroke="#d3d3d3" d="M96,-419C96,-413 102,-407 108,-407"/><polyline fill="none" stroke="#000" points="108 -407 262 -407"/><path fill="none" stroke="#000" d="M262,-407C268,-407 274,-413 274,-419"/><polyline fill="none" stroke="#000" points="274 -419 274 -487"/><path fill="none" stroke="#000" d="M274,-487C274,-493 268,-499 262,-499"/><polyline fill="none" stroke="#000" points="262 -499 108 -499"/><path fill="none" stroke="#000" d="M108,-499C102,-499 96,-493 96,-487"/><polyline fill="none" stroke="#000" points="96 -487 96 -419"/><path fill="none" stroke="#000" d="M96,-419C96,-413 102,-407 108,-407"/><text x="185" y="-483.8" font-family="Helvetica,sans-Serif" font-size="14" text-anchor="middle">Parent Handle</text><polyline fill="none" stroke="#000" points="96 -476 274 -476"/><text x="185" y="-460.8" font-family="Helvetica,sans-Serif" font-size="14" text-anchor="middle">Parent BPKI TA</text><polyline fill="none" stroke="#000" points="96 -453 274 -453"/><text x="185" y="-437.8" font-family="Helvetica,sans-Serif" font-size="14" text-anchor="middle">Parent Service URL</text><polyline fill="none" stroke="#000" points="96 -430 274 -430"/><text x="185" y="-414.8" font-family="Helvetica,sans-Serif" font-size="14" text-anchor="middle">Repository Hint (Optional)</text></g><g id="edge8" class="edge"><title>p4-&gt;m4</title><path fill="none" stroke="#000" d="M78.1289,-453C80.5946,-453 83.0602,-453 85.5259,-453"/><polygon fill="#000" stroke="#000" points="95.662 -453 85.662 -457.5 90.662 -453 85.662 -453 85.662 -453 85.662 -453 90.662 -453 85.662 -448.5 95.662 -453 95.662 -453"/></g><g id="edge9" class="edge"><title>m4-&gt;s4</title><path fill="none" stroke="#000" d="M274.414,-453C276.91,-453 279.406,-453 281.902,-453"/><polygon fill="#000" stroke="#000" points="292.164 -453 282.164 -457.5 287.164 -453 282.164 -453 282.164 -453 282.164 -453 287.164 -453 282.164 -448.5 292.164 -453 292.164 -453"/></g><g id="node17" class="node"><title>s5</title><polygon fill="#6495ed" stroke="#6495ed" points="363.25 -370 224.75 -370 212.75 -358 212.75 -346 224.75 -334 363.25 -334 375.25 -346 375.25 -358 363.25 -370"/><path fill="#6495ed" stroke="#6495ed" d="M224.75,-370C218.75,-370 212.75,-364 212.75,-358"/><path fill="#6495ed" stroke="#6495ed" d="M212.75,-346C212.75,-340 218.75,-334 224.75,-334"/><path fill="#6495ed" stroke="#6495ed" d="M363.25,-334C369.25,-334 375.25,-340 375.25,-346"/><path fill="#6495ed" stroke="#6495ed" d="M375.25,-358C375.25,-364 369.25,-370 363.25,-370"/><polyline fill="none" stroke="#000" points="363.25 -370 224.75 -370"/><path fill="none" stroke="#000" d="M224.75,-370C218.75,-370 212.75,-364 212.75,-358"/><polyline fill="none" stroke="#000" points="212.75 -358 212.75 -346"/><path fill="none" stroke="#000" d="M212.75,-346C212.75,-340 218.75,-334 224.75,-334"/><polyline fill="none" stroke="#000" points="224.75 -334 363.25 -334"/><path fill="none" stroke="#000" d="M363.25,-334C369.25,-334 375.25,-340 375.25,-346"/><polyline fill="none" stroke="#000" points="375.25 -346 375.25 -358"/><path fill="none" stroke="#000" d="M375.25,-358C375.25,-364 369.25,-370 363.25,-370"/><text x="294" y="-348.3" font-family="Helvetica,sans-Serif" font-size="14" text-anchor="middle">rpkic&gt; configure_parent</text></g><g id="edge27" class="edge"><title>s4-&gt;s5</title><path fill="none" stroke="#000" d="M294,-450.888C294,-443.071 294,-395.922 294,-370.019"/></g><g id="node19" class="node"><title>s6</title><ellipse cx="294" cy="-263" fill="#000" stroke="#000" rx="1.8" ry="1.8"/></g><g id="edge28" class="edge"><title>s5-&gt;s6</title><path fill="none" stroke="#000" d="M294,-333.812C294,-310.834 294,-272.168 294,-265.12"/></g><g id="node21" class="node"><title>m6</title><polygon fill="#d3d3d3" stroke="#d3d3d3" points="325.5 -228.5 486.5 -228.5 498.5 -240.5 498.5 -285.5 486.5 -297.5 325.5 -297.5 313.5 -285.5 313.5 -240.5 325.5 -228.5"/><path fill="#d3d3d3" stroke="#d3d3d3" d="M486.5,-228.5C492.5,-228.5 498.5,-234.5 498.5,-240.5"/><path fill="#d3d3d3" stroke="#d3d3d3" d="M498.5,-285.5C498.5,-291.5 492.5,-297.5 486.5,-297.5"/><path fill="#d3d3d3" stroke="#d3d3d3" d="M325.5,-297.5C319.5,-297.5 313.5,-291.5 313.5,-285.5"/><path fill="#d3d3d3" stroke="#d3d3d3" d="M313.5,-240.5C313.5,-234.5 319.5,-228.5 325.5,-228.5"/><polyline fill="none" stroke="#000" points="325.5 -228.5 486.5 -228.5"/><path fill="none" stroke="#000" d="M486.5,-228.5C492.5,-228.5 498.5,-234.5 498.5,-240.5"/><polyline fill="none" stroke="#000" points="498.5 -240.5 498.5 -285.5"/><path fill="none" stroke="#000" d="M498.5,-285.5C498.5,-291.5 492.5,-297.5 486.5,-297.5"/><polyline fill="none" stroke="#000" points="486.5 -297.5 325.5 -297.5"/><path fill="none" stroke="#000" d="M325.5,-297.5C319.5,-297.5 313.5,-291.5 313.5,-285.5"/><polyline fill="none" stroke="#000" points="313.5 -285.5 313.5 -240.5"/><path fill="none" stroke="#000" d="M313.5,-240.5C313.5,-234.5 319.5,-228.5 325.5,-228.5"/><text x="406" y="-282.3" font-family="Helvetica,sans-Serif" font-size="14" text-anchor="middle">Client Handle</text><polyline fill="none" stroke="#000" points="313.5 -274.5 498.5 -274.5"/><text x="406" y="-259.3" font-family="Helvetica,sans-Serif" font-size="14" text-anchor="middle">Client BPKI TA</text><polyline fill="none" stroke="#000" points="313.5 -251.5 498.5 -251.5"/><text x="406" y="-236.3" font-family="Helvetica,sans-Serif" font-size="14" text-anchor="middle">Hint From Parent (Optional)</text></g><g id="edge12" class="edge"><title>s6-&gt;m6</title><path fill="none" stroke="#000" d="M296.188,-263C298.511,-263 300.835,-263 303.158,-263"/><polygon fill="#000" stroke="#000" points="313.346 -263 303.346 -267.5 308.346 -263 303.346 -263 303.346 -263 303.346 -263 308.346 -263 303.346 -258.5 313.346 -263 313.346 -263"/></g><g id="node25" class="node"><title>s8</title><ellipse cx="294" cy="-96" fill="#000" stroke="#000" rx="1.8" ry="1.8"/></g><g id="edge41" class="edge"><title>s6-&gt;s8</title><path fill="none" stroke="#d3d3d3" stroke-dasharray="5 2" d="M294,-260.946C294,-247.553 294,-110.754 294,-97.9586"/></g><g id="edge13" class="edge"><title>m6-&gt;r6</title><path fill="none" stroke="#000" d="M498.75,-263C501.203,-263 503.656,-263 506.11,-263"/><polygon fill="#000" stroke="#000" points="516.195 -263 506.195 -267.5 511.195 -263 506.195 -263 506.195 -263 506.195 -263 511.195 -263 506.195 -258.5 516.195 -263 516.195 -263"/></g><g id="node23" class="node"><title>r7</title><polygon fill="#32cd32" stroke="#32cd32" points="621.5 -192 414.5 -192 402.5 -180 402.5 -168 414.5 -156 621.5 -156 633.5 -168 633.5 -180 621.5 -192"/><path fill="#32cd32" stroke="#32cd32" d="M414.5,-192C408.5,-192 402.5,-186 402.5,-180"/><path fill="#32cd32" stroke="#32cd32" d="M402.5,-168C402.5,-162 408.5,-156 414.5,-156"/><path fill="#32cd32" stroke="#32cd32" d="M621.5,-156C627.5,-156 633.5,-162 633.5,-168"/><path fill="#32cd32" stroke="#32cd32" d="M633.5,-180C633.5,-186 627.5,-192 621.5,-192"/><polyline fill="none" stroke="#000" points="621.5 -192 414.5 -192"/><path fill="none" stroke="#000" d="M414.5,-192C408.5,-192 402.5,-186 402.5,-180"/><polyline fill="none" stroke="#000" points="402.5 -180 402.5 -168"/><path fill="none" stroke="#000" d="M402.5,-168C402.5,-162 408.5,-156 414.5,-156"/><polyline fill="none" stroke="#000" points="414.5 -156 621.5 -156"/><path fill="none" stroke="#000" d="M621.5,-156C627.5,-156 633.5,-162 633.5,-168"/><polyline fill="none" stroke="#000" points="633.5 -168 633.5 -180"/><path fill="none" stroke="#000" d="M633.5,-180C633.5,-186 627.5,-192 621.5,-192"/><text x="518" y="-170.3" font-family="Helvetica,sans-Serif" font-size="14" text-anchor="middle">rpkic&gt; configure_publication_client</text></g><g id="edge30" class="edge"><title>r6-&gt;r7</title><path fill="none" stroke="#000" d="M518,-261.023C518,-254.377 518,-215.385 518,-192.24"/></g><g id="node28" class="node"><title>r8</title><ellipse cx="518" cy="-96" fill="#000" stroke="#000" rx="1.8" ry="1.8"/></g><g id="edge31" class="edge"><title>r7-&gt;r8</title><path fill="none" stroke="#000" d="M518,-155.754C518,-135.433 518,-103.69 518,-97.9166"/></g><g id="node27" class="node"><title>m8</title><polygon fill="#d3d3d3" stroke="#d3d3d3" points="335.5 -73 476.5 -73 488.5 -85 488.5 -107 476.5 -119 335.5 -119 323.5 -107 323.5 -85 335.5 -73"/><path fill="#d3d3d3" stroke="#d3d3d3" d="M476.5,-73C482.5,-73 488.5,-79 488.5,-85"/><path fill="#d3d3d3" stroke="#d3d3d3" d="M488.5,-107C488.5,-113 482.5,-119 476.5,-119"/><path fill="#d3d3d3" stroke="#d3d3d3" d="M335.5,-119C329.5,-119 323.5,-113 323.5,-107"/><path fill="#d3d3d3" stroke="#d3d3d3" d="M323.5,-85C323.5,-79 329.5,-73 335.5,-73"/><polyline fill="none" stroke="#000" points="335.5 -73 476.5 -73"/><path fill="none" stroke="#000" d="M476.5,-73C482.5,-73 488.5,-79 488.5,-85"/><polyline fill="none" stroke="#000" points="488.5 -85 488.5 -107"/><path fill="none" stroke="#000" d="M488.5,-107C488.5,-113 482.5,-119 476.5,-119"/><polyline fill="none" stroke="#000" points="476.5 -119 335.5 -119"/><path fill="none" stroke="#000" d="M335.5,-119C329.5,-119 323.5,-113 323.5,-107"/><polyline fill="none" stroke="#000" points="323.5 -107 323.5 -85"/><path fill="none" stroke="#000" d="M323.5,-85C323.5,-79 329.5,-73 335.5,-73"/><text x="406" y="-103.8" font-family="Helvetica,sans-Serif" font-size="14" text-anchor="middle">Repository BPKI TA</text><polyline fill="none" stroke="#000" points="323.5 -96 488.5 -96"/><text x="406" y="-80.8" font-family="Helvetica,sans-Serif" font-size="14" text-anchor="middle">Repository Service URL</text></g><g id="edge16" class="edge"><title>s8-&gt;m8</title><path fill="none" stroke="#000" d="M306.322,-96C311.952,-96 317.582,-96 323.212,-96"/><polygon fill="#000" stroke="#000" points="296.188 -96 306.188 -91.5 301.188 -96 306.188 -96 306.188 -96 306.188 -96 301.188 -96 306.187 -100.5 296.188 -96 296.188 -96"/></g><g id="node29" class="node"><title>s9</title><polygon fill="#6495ed" stroke="#6495ed" points="375.25 -36 212.75 -36 200.75 -24 200.75 -12 212.75 0 375.25 0 387.25 -12 387.25 -24 375.25 -36"/><path fill="#6495ed" stroke="#6495ed" d="M212.75,-36C206.75,-36 200.75,-30 200.75,-24"/><path fill="#6495ed" stroke="#6495ed" d="M200.75,-12C200.75,-6 206.75,-0 212.75,-0"/><path fill="#6495ed" stroke="#6495ed" d="M375.25,-0C381.25,-0 387.25,-6 387.25,-12"/><path fill="#6495ed" stroke="#6495ed" d="M387.25,-24C387.25,-30 381.25,-36 375.25,-36"/><polyline fill="none" stroke="#000" points="375.25 -36 212.75 -36"/><path fill="none" stroke="#000" d="M212.75,-36C206.75,-36 200.75,-30 200.75,-24"/><polyline fill="none" stroke="#000" points="200.75 -24 200.75 -12"/><path fill="none" stroke="#000" d="M200.75,-12C200.75,-6 206.75,-0 212.75,-0"/><polyline fill="none" stroke="#000" points="212.75 0 375.25 0"/><path fill="none" stroke="#000" d="M375.25,-0C381.25,-0 387.25,-6 387.25,-12"/><polyline fill="none" stroke="#000" points="387.25 -12 387.25 -24"/><path fill="none" stroke="#000" d="M387.25,-24C387.25,-30 381.25,-36 375.25,-36"/><text x="294" y="-14.3" font-family="Helvetica,sans-Serif" font-size="14" text-anchor="middle">rpkic&gt; configure_repository</text></g><g id="edge33" class="edge"><title>s8-&gt;s9</title><path fill="none" stroke="#000" d="M294,-94.1465C294,-88.5366 294,-56.5427 294,-36.1506"/></g><g id="edge17" class="edge"><title>m8-&gt;r8</title><path fill="none" stroke="#000" d="M498.993,-96C504.718,-96 510.443,-96 516.168,-96"/><polygon fill="#000" stroke="#000" points="488.688 -96 498.688 -91.5 493.688 -96 498.688 -96 498.688 -96 498.688 -96 493.688 -96 498.687 -100.5 488.688 -96 488.688 -96"/></g></g></svg>