<svg xmlns="http://www.w3.org/2000/svg" xmlns:xlink="http://www.w3.org/1999/xlink" width="307pt" height="816" viewBox="0 0 307 612"><g id="graph1" class="graph" transform="scale(1 1) rotate(0) translate(4 608)"><title>ladder_oob</title><polygon fill="#fff" stroke="#fff" points="-4 5 -4 -608 304 -608 304 5 -4 5"/><g id="node2" class="node"><title>i0</title><polygon fill="#ff1493" stroke="#000" points="-.22 -560.67 56 -537.572 112.22 -560.67 112.168 -598.044 -.168 -598.044 -.22 -560.67"/><text x="56" y="-574.8" font-family="Helvetica,sans-Serif" font-size="14" text-anchor="middle">Issuer</text><text x="56" y="-559.8" font-family="Helvetica,sans-Serif" font-size="14" text-anchor="middle">(Parent)</text></g><g id="node3" class="node"><title>s0</title><polygon fill="#6495ed" stroke="#000" points="186.78 -560.67 243 -537.572 299.22 -560.67 299.168 -598.044 186.832 -598.044 186.78 -560.67"/><text x="243" y="-574.8" font-family="Helvetica,sans-Serif" font-size="14" text-anchor="middle">Subject</text><text x="243" y="-559.8" font-family="Helvetica,sans-Serif" font-size="14" text-anchor="middle">(Child)</text></g><g id="node5" class="node"><title>i1</title><ellipse cx="56" cy="-483" fill="#000" stroke="#000" rx="1.8" ry="1.8"/></g><g id="edge41" class="edge"><title>i0-&gt;i1</title><path fill="none" stroke="#d3d3d3" stroke-dasharray="5 2" d="M56,-537.487C56,-516.178 56,-491.209 56,-485.299"/></g><g id="node8" class="node"><title>s1</title><ellipse cx="243" cy="-483" fill="#d8bfd8" stroke="#d8bfd8" rx="30.321" ry="18"/><text x="243" y="-479.3" font-family="Helvetica,sans-Serif" font-size="14" text-anchor="middle">Start</text></g><g id="edge43" class="edge"><title>s0-&gt;s1</title><path fill="none" stroke="#d3d3d3" stroke-dasharray="5 2" d="M243,-537.487C243,-525.12 243,-511.52 243,-501.129"/></g><g id="node7" class="node"><title>m1</title><polygon fill="#d3d3d3" stroke="#d3d3d3" points="120 -465 150 -465 162 -477 162 -489 150 -501 120 -501 108 -489 108 -477 120 -465"/><path fill="#d3d3d3" stroke="#d3d3d3" d="M150,-465C156,-465 162,-471 162,-477"/><path fill="#d3d3d3" stroke="#d3d3d3" d="M162,-489C162,-495 156,-501 150,-501"/><path fill="#d3d3d3" stroke="#d3d3d3" d="M120,-501C114,-501 108,-495 108,-489"/><path fill="#d3d3d3" stroke="#d3d3d3" d="M108,-477C108,-471 114,-465 120,-465"/><polyline fill="none" stroke="#000" points="120 -465 150 -465"/><path fill="none" stroke="#000" d="M150,-465C156,-465 162,-471 162,-477"/><polyline fill="none" stroke="#000" points="162 -477 162 -489"/><path fill="none" stroke="#000" d="M162,-489C162,-495 156,-501 150,-501"/><polyline fill="none" stroke="#000" points="150 -501 120 -501"/><path fill="none" stroke="#000" d="M120,-501C114,-501 108,-495 108,-489"/><polyline fill="none" stroke="#000" points="108 -489 108 -477"/><path fill="none" stroke="#000" d="M108,-477C108,-471 114,-465 120,-465"/><text x="135" y="-479.3" font-family="Helvetica,sans-Serif" font-size="14" text-anchor="middle">List</text></g><g id="edge4" class="edge"><title>i1-&gt;m1</title><path fill="none" stroke="#000" d="M68.0131,-483C81.3012,-483 94.5894,-483 107.878,-483"/><polygon fill="#000" stroke="#000" points="57.852 -483 67.852 -478.5 62.852 -483 67.852 -483 67.852 -483 67.852 -483 62.852 -483 67.852 -487.5 57.852 -483 57.852 -483"/></g><g id="node10" class="node"><title>i2</title><ellipse cx="56" cy="-404" fill="#000" stroke="#000" rx="1.8" ry="1.8"/></g><g id="edge31" class="edge"><title>i1-&gt;i2</title><path fill="none" stroke="#000" d="M56,-481.135C56,-473.271 56,-414.224 56,-405.96"/></g><g id="edge5" class="edge"><title>m1-&gt;s1</title><path fill="none" stroke="#000" d="M172.588,-483C185.881,-483 199.175,-483 212.468,-483"/><polygon fill="#000" stroke="#000" points="162.422 -483 172.422 -478.5 167.422 -483 172.422 -483 172.422 -483 172.422 -483 167.422 -483 172.422 -487.5 162.422 -483 162.422 -483"/></g><g id="node13" class="node"><title>s2</title><ellipse cx="243" cy="-404" fill="#000" stroke="#000" rx="1.8" ry="1.8"/></g><g id="edge45" class="edge"><title>s1-&gt;s2</title><path fill="none" stroke="#d3d3d3" stroke-dasharray="5 2" d="M243,-464.911C243,-444.353 243,-411.852 243,-405.939"/></g><g id="node12" class="node"><title>m2</title><polygon fill="#d3d3d3" stroke="#d3d3d3" points="110 -381 190 -381 202 -393 202 -415 190 -427 110 -427 98 -415 98 -393 110 -381"/><path fill="#d3d3d3" stroke="#d3d3d3" d="M190,-381C196,-381 202,-387 202,-393"/><path fill="#d3d3d3" stroke="#d3d3d3" d="M202,-415C202,-421 196,-427 190,-427"/><path fill="#d3d3d3" stroke="#d3d3d3" d="M110,-427C104,-427 98,-421 98,-415"/><path fill="#d3d3d3" stroke="#d3d3d3" d="M98,-393C98,-387 104,-381 110,-381"/><polyline fill="none" stroke="#000" points="110 -381 190 -381"/><path fill="none" stroke="#000" d="M190,-381C196,-381 202,-387 202,-393"/><polyline fill="none" stroke="#000" points="202 -393 202 -415"/><path fill="none" stroke="#000" d="M202,-415C202,-421 196,-427 190,-427"/><polyline fill="none" stroke="#000" points="190 -427 110 -427"/><path fill="none" stroke="#000" d="M110,-427C104,-427 98,-421 98,-415"/><polyline fill="none" stroke="#000" points="98 -415 98 -393"/><path fill="none" stroke="#000" d="M98,-393C98,-387 104,-381 110,-381"/><text x="150" y="-411.8" font-family="Helvetica,sans-Serif" font-size="14" text-anchor="middle">List Response</text><polyline fill="none" stroke="#000" points="98 -404 202 -404"/><text x="150" y="-388.8" font-family="Helvetica,sans-Serif" font-size="14" text-anchor="middle">Classes A, B</text></g><g id="edge8" class="edge"><title>i2-&gt;m2</title><path fill="none" stroke="#000" d="M57.8359,-404C67.7223,-404 77.6087,-404 87.4951,-404"/><polygon fill="#000" stroke="#000" points="97.798 -404 87.798 -408.5 92.798 -404 87.798 -404 87.798 -404 87.798 -404 92.798 -404 87.798 -399.5 97.798 -404 97.798 -404"/></g><g id="node15" class="node"><title>i3</title><ellipse cx="56" cy="-320" fill="#000" stroke="#000" rx="1.8" ry="1.8"/></g><g id="edge47" class="edge"><title>i2-&gt;i3</title><path fill="none" stroke="#d3d3d3" stroke-dasharray="5 2" d="M56,-402.079C56,-393.633 56,-329.762 56,-321.812"/></g><g id="edge9" class="edge"><title>m2-&gt;s2</title><path fill="none" stroke="#000" d="M202.312,-404C211.806,-404 221.299,-404 230.792,-404"/><polygon fill="#000" stroke="#000" points="241.093 -404 231.093 -408.5 236.093 -404 231.093 -404 231.093 -404 231.093 -404 236.093 -404 231.093 -399.5 241.093 -404 241.093 -404"/></g><g id="node18" class="node"><title>s3</title><ellipse cx="243" cy="-320" fill="#000" stroke="#000" rx="1.8" ry="1.8"/></g><g id="edge33" class="edge"><title>s2-&gt;s3</title><path fill="none" stroke="#000" d="M243,-402.079C243,-393.633 243,-329.762 243,-321.812"/></g><g id="node17" class="node"><title>m3</title><polygon fill="#d3d3d3" stroke="#d3d3d3" points="130.5 -297 169.5 -297 181.5 -309 181.5 -331 169.5 -343 130.5 -343 118.5 -331 118.5 -309 130.5 -297"/><path fill="#d3d3d3" stroke="#d3d3d3" d="M169.5,-297C175.5,-297 181.5,-303 181.5,-309"/><path fill="#d3d3d3" stroke="#d3d3d3" d="M181.5,-331C181.5,-337 175.5,-343 169.5,-343"/><path fill="#d3d3d3" stroke="#d3d3d3" d="M130.5,-343C124.5,-343 118.5,-337 118.5,-331"/><path fill="#d3d3d3" stroke="#d3d3d3" d="M118.5,-309C118.5,-303 124.5,-297 130.5,-297"/><polyline fill="none" stroke="#000" points="130.5 -297 169.5 -297"/><path fill="none" stroke="#000" d="M169.5,-297C175.5,-297 181.5,-303 181.5,-309"/><polyline fill="none" stroke="#000" points="181.5 -309 181.5 -331"/><path fill="none" stroke="#000" d="M181.5,-331C181.5,-337 175.5,-343 169.5,-343"/><polyline fill="none" stroke="#000" points="169.5 -343 130.5 -343"/><path fill="none" stroke="#000" d="M130.5,-343C124.5,-343 118.5,-337 118.5,-331"/><polyline fill="none" stroke="#000" points="118.5 -331 118.5 -309"/><path fill="none" stroke="#000" d="M118.5,-309C118.5,-303 124.5,-297 130.5,-297"/><text x="150" y="-327.8" font-family="Helvetica,sans-Serif" font-size="14" text-anchor="middle">Issue</text><polyline fill="none" stroke="#000" points="118.5 -320 181.5 -320"/><text x="150" y="-304.8" font-family="Helvetica,sans-Serif" font-size="14" text-anchor="middle">Class A</text></g><g id="edge12" class="edge"><title>i3-&gt;m3</title><path fill="none" stroke="#000" d="M68.2314,-320C84.9271,-320 101.623,-320 118.319,-320"/><polygon fill="#000" stroke="#000" points="57.836 -320 67.836 -315.5 62.836 -320 67.836 -320 67.836 -320 67.836 -320 62.836 -320 67.836 -324.5 57.836 -320 57.836 -320"/></g><g id="node20" class="node"><title>i4</title><ellipse cx="56" cy="-225" fill="#000" stroke="#000" rx="1.8" ry="1.8"/></g><g id="edge35" class="edge"><title>i3-&gt;i4</title><path fill="none" stroke="#000" d="M56,-317.956C56,-308.377 56,-235.938 56,-226.92"/></g><g id="edge13" class="edge"><title>m3-&gt;s3</title><path fill="none" stroke="#000" d="M191.828,-320C208.246,-320 224.664,-320 241.081,-320"/><polygon fill="#000" stroke="#000" points="181.605 -320 191.606 -315.5 186.605 -320 191.605 -320 191.605 -320 191.605 -320 186.605 -320 191.605 -324.5 181.605 -320 181.605 -320"/></g><g id="node23" class="node"><title>s4</title><ellipse cx="243" cy="-225" fill="#000" stroke="#000" rx="1.8" ry="1.8"/></g><g id="edge49" class="edge"><title>s3-&gt;s4</title><path fill="none" stroke="#d3d3d3" stroke-dasharray="5 2" d="M243,-317.956C243,-308.377 243,-235.938 243,-226.92"/></g><g id="node22" class="node"><title>m4</title><polygon fill="#d3d3d3" stroke="#d3d3d3" points="104.5 -190.5 195.5 -190.5 207.5 -202.5 207.5 -247.5 195.5 -259.5 104.5 -259.5 92.5 -247.5 92.5 -202.5 104.5 -190.5"/><path fill="#d3d3d3" stroke="#d3d3d3" d="M195.5,-190.5C201.5,-190.5 207.5,-196.5 207.5,-202.5"/><path fill="#d3d3d3" stroke="#d3d3d3" d="M207.5,-247.5C207.5,-253.5 201.5,-259.5 195.5,-259.5"/><path fill="#d3d3d3" stroke="#d3d3d3" d="M104.5,-259.5C98.5,-259.5 92.5,-253.5 92.5,-247.5"/><path fill="#d3d3d3" stroke="#d3d3d3" d="M92.5,-202.5C92.5,-196.5 98.5,-190.5 104.5,-190.5"/><polyline fill="none" stroke="#000" points="104.5 -190.5 195.5 -190.5"/><path fill="none" stroke="#000" d="M195.5,-190.5C201.5,-190.5 207.5,-196.5 207.5,-202.5"/><polyline fill="none" stroke="#000" points="207.5 -202.5 207.5 -247.5"/><path fill="none" stroke="#000" d="M207.5,-247.5C207.5,-253.5 201.5,-259.5 195.5,-259.5"/><polyline fill="none" stroke="#000" points="195.5 -259.5 104.5 -259.5"/><path fill="none" stroke="#000" d="M104.5,-259.5C98.5,-259.5 92.5,-253.5 92.5,-247.5"/><polyline fill="none" stroke="#000" points="92.5 -247.5 92.5 -202.5"/><path fill="none" stroke="#000" d="M92.5,-202.5C92.5,-196.5 98.5,-190.5 104.5,-190.5"/><text x="150" y="-244.3" font-family="Helvetica,sans-Serif" font-size="14" text-anchor="middle">Issue Response</text><polyline fill="none" stroke="#000" points="92.5 -236.5 207.5 -236.5"/><text x="150" y="-221.3" font-family="Helvetica,sans-Serif" font-size="14" text-anchor="middle">Class A</text><polyline fill="none" stroke="#000" points="92.5 -213.5 207.5 -213.5"/><text x="150" y="-198.3" font-family="Helvetica,sans-Serif" font-size="14" text-anchor="middle">Certificate</text></g><g id="edge16" class="edge"><title>i4-&gt;m4</title><path fill="none" stroke="#000" d="M57.8359,-225C65.9363,-225 74.0367,-225 82.137,-225"/><polygon fill="#000" stroke="#000" points="92.397 -225 82.397 -229.5 87.397 -225 82.397 -225 82.397 -225 82.397 -225 87.397 -225 82.397 -220.5 92.397 -225 92.397 -225"/></g><g id="node25" class="node"><title>i5</title><ellipse cx="56" cy="-130" fill="#000" stroke="#000" rx="1.8" ry="1.8"/></g><g id="edge51" class="edge"><title>i4-&gt;i5</title><path fill="none" stroke="#d3d3d3" stroke-dasharray="5 2" d="M56,-222.956C56,-213.377 56,-140.938 56,-131.92"/></g><g id="edge17" class="edge"><title>m4-&gt;s4</title><path fill="none" stroke="#000" d="M207.762,-225C215.482,-225 223.203,-225 230.923,-225"/><polygon fill="#000" stroke="#000" points="241.073 -225 231.073 -229.5 236.073 -225 231.073 -225 231.073 -225 231.073 -225 236.073 -225 231.073 -220.5 241.073 -225 241.073 -225"/></g><g id="node28" class="node"><title>s5</title><ellipse cx="243" cy="-130" fill="#000" stroke="#000" rx="1.8" ry="1.8"/></g><g id="edge37" class="edge"><title>s4-&gt;s5</title><path fill="none" stroke="#000" d="M243,-222.956C243,-213.377 243,-140.938 243,-131.92"/></g><g id="node27" class="node"><title>m5</title><polygon fill="#d3d3d3" stroke="#d3d3d3" points="130 -107 170 -107 182 -119 182 -141 170 -153 130 -153 118 -141 118 -119 130 -107"/><path fill="#d3d3d3" stroke="#d3d3d3" d="M170,-107C176,-107 182,-113 182,-119"/><path fill="#d3d3d3" stroke="#d3d3d3" d="M182,-141C182,-147 176,-153 170,-153"/><path fill="#d3d3d3" stroke="#d3d3d3" d="M130,-153C124,-153 118,-147 118,-141"/><path fill="#d3d3d3" stroke="#d3d3d3" d="M118,-119C118,-113 124,-107 130,-107"/><polyline fill="none" stroke="#000" points="130 -107 170 -107"/><path fill="none" stroke="#000" d="M170,-107C176,-107 182,-113 182,-119"/><polyline fill="none" stroke="#000" points="182 -119 182 -141"/><path fill="none" stroke="#000" d="M182,-141C182,-147 176,-153 170,-153"/><polyline fill="none" stroke="#000" points="170 -153 130 -153"/><path fill="none" stroke="#000" d="M130,-153C124,-153 118,-147 118,-141"/><polyline fill="none" stroke="#000" points="118 -141 118 -119"/><path fill="none" stroke="#000" d="M118,-119C118,-113 124,-107 130,-107"/><text x="150" y="-137.8" font-family="Helvetica,sans-Serif" font-size="14" text-anchor="middle">Issue</text><polyline fill="none" stroke="#000" points="118 -130 182 -130"/><text x="150" y="-114.8" font-family="Helvetica,sans-Serif" font-size="14" text-anchor="middle">Class B</text></g><g id="edge20" class="edge"><title>i5-&gt;m5</title><path fill="none" stroke="#000" d="M68.1695,-130C84.7659,-130 101.362,-130 117.959,-130"/><polygon fill="#000" stroke="#000" points="57.836 -130 67.836 -125.5 62.836 -130 67.836 -130 67.836 -130 67.836 -130 62.836 -130 67.836 -134.5 57.836 -130 57.836 -130"/></g><g id="node30" class="node"><title>i6</title><ellipse cx="56" cy="-35" fill="#000" stroke="#000" rx="1.8" ry="1.8"/></g><g id="edge39" class="edge"><title>i5-&gt;i6</title><path fill="none" stroke="#000" d="M56,-127.956C56,-118.377 56,-45.9379 56,-36.9205"/></g><g id="edge21" class="edge"><title>m5-&gt;s5</title><path fill="none" stroke="#000" d="M192.433,-130C208.657,-130 224.881,-130 241.104,-130"/><polygon fill="#000" stroke="#000" points="182.332 -130 192.332 -125.5 187.332 -130 192.332 -130 192.332 -130 192.332 -130 187.332 -130 192.332 -134.5 182.332 -130 182.332 -130"/></g><g id="node33" class="node"><title>s6</title><ellipse cx="243" cy="-35" fill="#d8bfd8" stroke="#d8bfd8" rx="34.171" ry="18"/><text x="243" y="-31.3" font-family="Helvetica,sans-Serif" font-size="14" text-anchor="middle">Sleep</text></g><g id="edge53" class="edge"><title>s5-&gt;s6</title><path fill="none" stroke="#d3d3d3" stroke-dasharray="5 2" d="M243,-127.956C243,-120.732 243,-77.7548 243,-53.1931"/></g><g id="node32" class="node"><title>m6</title><polygon fill="#d3d3d3" stroke="#d3d3d3" points="87.5 -.5 178.5 -.5 190.5 -12.5 190.5 -57.5 178.5 -69.5 87.5 -69.5 75.5 -57.5 75.5 -12.5 87.5 -.5"/><path fill="#d3d3d3" stroke="#d3d3d3" d="M178.5,-0.5C184.5,-0.5 190.5,-6.5 190.5,-12.5"/><path fill="#d3d3d3" stroke="#d3d3d3" d="M190.5,-57.5C190.5,-63.5 184.5,-69.5 178.5,-69.5"/><path fill="#d3d3d3" stroke="#d3d3d3" d="M87.5,-69.5C81.5,-69.5 75.5,-63.5 75.5,-57.5"/><path fill="#d3d3d3" stroke="#d3d3d3" d="M75.5,-12.5C75.5,-6.5 81.5,-0.5 87.5,-0.5"/><polyline fill="none" stroke="#000" points="87.5 -.5 178.5 -.5"/><path fill="none" stroke="#000" d="M178.5,-0.5C184.5,-0.5 190.5,-6.5 190.5,-12.5"/><polyline fill="none" stroke="#000" points="190.5 -12.5 190.5 -57.5"/><path fill="none" stroke="#000" d="M190.5,-57.5C190.5,-63.5 184.5,-69.5 178.5,-69.5"/><polyline fill="none" stroke="#000" points="178.5 -69.5 87.5 -69.5"/><path fill="none" stroke="#000" d="M87.5,-69.5C81.5,-69.5 75.5,-63.5 75.5,-57.5"/><polyline fill="none" stroke="#000" points="75.5 -57.5 75.5 -12.5"/><path fill="none" stroke="#000" d="M75.5,-12.5C75.5,-6.5 81.5,-0.5 87.5,-0.5"/><text x="133" y="-54.3" font-family="Helvetica,sans-Serif" font-size="14" text-anchor="middle">Issue Response</text><polyline fill="none" stroke="#000" points="75.5 -46.5 190.5 -46.5"/><text x="133" y="-31.3" font-family="Helvetica,sans-Serif" font-size="14" text-anchor="middle">Class B</text><polyline fill="none" stroke="#000" points="75.5 -23.5 190.5 -23.5"/><text x="133" y="-8.3" font-family="Helvetica,sans-Serif" font-size="14" text-anchor="middle">Certificate</text></g><g id="edge24" class="edge"><title>i6-&gt;m6</title><path fill="none" stroke="#000" d="M57.8047,-35C60.283,-35 62.7614,-35 65.2398,-35"/><polygon fill="#000" stroke="#000" points="75.429 -35 65.429 -39.5 70.429 -35 65.429 -35 65.429 -35 65.429 -35 70.429 -35 65.428 -30.5 75.429 -35 75.429 -35"/></g><g id="edge25" class="edge"><title>m6-&gt;s6</title><path fill="none" stroke="#000" d="M190.578,-35C193.206,-35 195.834,-35 198.462,-35"/><polygon fill="#000" stroke="#000" points="208.598 -35 198.598 -39.5 203.598 -35 198.598 -35 198.598 -35 198.598 -35 203.598 -35 198.598 -30.5 208.598 -35 208.598 -35"/></g><g id="edge29" class="edge"><title>s6-&gt;s1</title><path fill="none" stroke="#000" d="M247.556,-52.9634C255.949,-85.7489 273,-160.21 273,-224 273,-321 273,-321 273,-321 273,-368.769 260.079,-423.182 251.196,-454.943"/><polygon fill="#000" stroke="#000" points="248.363 -464.804 246.8 -453.95 249.744 -459.998 251.125 -455.193 251.125 -455.193 251.125 -455.193 249.744 -459.998 255.45 -456.436 248.363 -464.804 248.363 -464.804"/></g></g></svg>